HIERARCHY
ROOT Hips
{
	OFFSET 0.000000 0.000000 0.000000 
	CHANNELS 6 Xposition Yposition Zposition Yrotation Zrotation Xrotation 
	JOINT Lumbar
	{
		OFFSET 0.000000 0.000000 0.000000 
		CHANNELS 3 Zrotation Xrotation Yrotation
		JOINT Neck
		{
			OFFSET 0.000000 0.445665 0.000000 
			CHANNELS 3 Zrotation Xrotation Yrotation
			End Site
			{
				OFFSET 0.000000 0.227535 0.000000 
			}
		}
		JOINT RightShoulder
		{
			OFFSET 0.019635 0.377685 0.194865 
			CHANNELS 3 Zrotation Xrotation Yrotation
			JOINT RightElbow
			{
				OFFSET 0.000000 -0.243375 0.000000 
				CHANNELS 2 Zrotation Yrotation
				JOINT RightWrist
				{
					OFFSET 0.000000 -0.264825 0.000000 
					CHANNELS 2 Zrotation Xrotation
					End Site
					{
						OFFSET 0.006600 -0.176220 0.000990 
					}
				}
			}
		}
		JOINT LeftShoulder
		{
			OFFSET 0.019635 0.377685 -0.194865 
			CHANNELS 3 Zrotation Xrotation Yrotation
			JOINT LeftElbow
			{
				OFFSET 0.000000 -0.243375 0.000000 
				CHANNELS 2 Zrotation Yrotation
				JOINT LeftWrist
				{
					OFFSET 0.000000 -0.264825 0.000000 
					CHANNELS 2 Zrotation Xrotation
					End Site
					{
						OFFSET 0.006600 -0.176220 -0.000990 
					}
				}
			}
		}
	}
	JOINT RightHip
	{
		OFFSET 0.052140 -0.069960 0.075570 
		CHANNELS 3 Zrotation Xrotation Yrotation
		JOINT RightKnee
		{
			OFFSET 0.000000 -0.402270 0.000000 
			CHANNELS 1 Zrotation
			JOINT RightAnkle
			{
				OFFSET 0.000000 -0.404085 0.000000 
				CHANNELS 3 Zrotation Xrotation Yrotation
				End Site
				{
					OFFSET 0.204105 -0.089430 0.008415 
				}
			}
		}
	}
	JOINT LeftHip
	{
		OFFSET 0.052140 -0.069960 -0.075570 
		CHANNELS 3 Zrotation Xrotation Yrotation
		JOINT LeftKnee
		{
			OFFSET 0.000000 -0.402270 0.000000 
			CHANNELS 1 Zrotation
			JOINT LeftAnkle
			{
				OFFSET 0.000000 -0.404085 0.000000 
				CHANNELS 3 Zrotation Xrotation Yrotation
				End Site
				{
					OFFSET 0.204105 -0.089430 -0.008415 
				}
			}
		}
	}
}
MOTION
Frames: 19
Frame Time: 0.02
0.00035 -6e-05 -0.00012 -180.6637 -34.04146 -3.26066 42.8891 2.94948 -3.38989 -15.80956 -1.42137 -1.34583 73.87649 -100.40885 55.63447 5.78675 105.30365 12.88142 2.7591 53.8967 103.35484 -55.63126 6.47438 -95.12424 11.34855 -0.16769 40.02268 -3.12528 -8.00197 -22.69179 -6.73297 -2.21835 -3.30263 43.7494 9.42942 4.33341 -28.02576 -6.6388 2.39153 3.39017
0.00029 -6e-05 -0.00014 -180.65053 -33.85892 -3.25028 42.70533 2.94707 -3.41824 -15.82912 -1.42106 -1.34637 74.14335 -100.41163 55.6344 5.78679 105.32904 12.87856 2.81599 53.89432 103.41518 -55.63125 6.46348 -95.11163 11.34723 -0.1739 39.79922 -3.12215 -7.99036 -22.65903 -6.73204 -2.21766 -3.30346 43.52632 9.43485 4.37212 -27.99859 -6.63713 2.38725 3.38877
0.00022 -6e-05 -0.00016 -180.63749 -33.67719 -3.23994 42.52238 2.94469 -3.44644 -15.84862 -1.42075 -1.34691 74.40981 -100.41441 55.63433 5.78682 105.35439 12.8757 2.87279 53.89183 103.47538 -55.63124 6.45263 -95.099 11.34588 -0.18008 39.57673 -3.11916 -7.97931 -22.62641 -6.73111 -2.21692 -3.30426 43.30418 9.44029 4.41077 -27.97153 -6.63545 2.38298 3.38738
0.00015 -5e-05 -0.00019 -180.62438 -33.49527 -3.22959 42.33924 2.94229 -3.47469 -15.86812 -1.42043 -1.34745 74.67592 -100.41718 55.63426 5.78685 105.3797 12.87286 2.92952 53.88944 103.53555 -55.63123 6.44176 -95.0864 11.34456 -0.18627 39.35403 -3.11606 -7.96781 -22.59376 -6.73019 -2.21623 -3.30509 43.08185 9.4457 4.44936 -27.94444 -6.63378 2.37872 3.38599
9e-05 -5e-05 -0.00021 -180.6111 -33.31242 -3.2192 42.15515 2.93986 -3.5031 -15.88769 -1.42012 -1.34799 74.94226 -100.41995 55.63418 5.78689 105.40503 12.87001 2.98628 53.88722 103.59583 -55.63121 6.43083 -95.07385 11.34328 -0.19249 39.13021 -3.11281 -7.95559 -22.56093 -6.72927 -2.21561 -3.30596 42.85842 9.45113 4.48801 -27.91724 -6.6321 2.37444 3.38459
2e-05 -5e-05 -0.00023 -180.59854 -33.13303 -3.20898 41.97455 2.93759 -3.53089 -15.90703 -1.4198 -1.34853 75.20896 -100.42276 55.63411 5.78692 105.43043 12.86712 3.04318 53.88415 103.65586 -55.6312 6.42014 -95.06107 11.3418 -0.19858 38.91049 -3.11035 -7.947 -22.52875 -6.72833 -2.21461 -3.30662 42.63896 9.45658 4.52668 -27.89048 -6.63044 2.37019 3.3832
-5e-05 -5e-05 -0.00026 -180.58459 -32.947 -3.19843 41.78728 2.935 -3.55986 -15.92681 -1.4195 -1.34907 75.47462 -100.42549 55.63404 5.78695 105.45566 12.86433 3.09974 53.8828 103.71634 -55.63119 6.40897 -95.04874 11.34071 -0.20493 38.68293 -3.10628 -7.93105 -22.49534 -6.72743 -2.21439 -3.30769 42.41194 9.46196 4.56517 -27.86287 -6.62876 2.3659 3.38181
-0.00011 -4e-05 -0.00028 -180.57185 -32.76684 -3.18817 41.60591 2.93269 -3.58779 -15.94618 -1.41917 -1.34961 75.7413 -100.42826 55.63397 5.78698 105.48105 12.86144 3.15661 53.87986 103.77639 -55.63118 6.39825 -95.03602 11.33926 -0.21104 38.46227 -3.10372 -7.92202 -22.46301 -6.72649 -2.21343 -3.30838 42.19157 9.46744 4.60402 -27.83601 -6.62708 2.36162 3.38041
-0.00018 -4e-05 -0.00031 -180.56087 -32.59484 -3.1783 41.4327 2.93079 -3.61426 -15.96506 -1.41885 -1.35015 76.0092 -100.43122 55.6339 5.78701 105.50662 12.85847 3.21392 53.87493 103.83599 -55.63117 6.38808 -95.02269 11.33737 -0.21683 38.25131 -3.10292 -7.92102 -22.4322 -6.72551 -2.21164 -3.30861 41.98052 9.47288 4.64257 -27.81019 -6.62544 2.35746 3.37904
-0.00024 -4e-05 -0.00033 -180.54061 -32.37885 -3.1663 41.21539 2.92672 -3.64858 -15.98678 -1.41863 -1.35067 76.27 -100.4335 55.63381 5.78705 105.53112 12.85607 3.26887 53.88132 103.89841 -55.63116 6.37475 -95.01249 11.33802 -0.22442 37.98837 -3.09175 -7.87252 -22.39324 -6.72476 -2.21484 -3.31153 41.71942 9.47808 4.68061 -27.77875 -6.62369 2.35292 3.3776
-0.00032 -4e-05 -0.00035 -180.53941 -32.25374 -3.15871 41.08926 2.92712 -3.6667 -16.00249 -1.4181 -1.35125 76.54575 -100.43696 55.63376 5.78708 105.55789 12.85241 3.32869 53.86395 103.95475 -55.63116 6.36808 -94.99593 11.33331 -0.22824 37.83262 -3.10259 -7.92501 -22.37108 -6.72355 -2.2074 -3.30875 41.56165 9.4841 4.72116 -27.75893 -6.62212 2.34901 3.37624
-0.00043 -4e-05 -0.00033 -180.59532 -32.39682 -3.16416 41.23162 2.94065 -3.63677 -16.00176 -1.41735 -1.35198 76.86357 -100.44583 55.63381 5.78705 105.59091 12.84562 3.40297 53.77999 103.99519 -55.63114 6.37979 -94.95985 11.31381 -0.22137 37.99479 -3.17321 -8.25 -22.39872 -6.72086 -2.17141 -3.29047 41.70936 9.4898 4.75652 -27.77335 -6.62134 2.34818 3.37583
-0.00056 -4e-05 -0.00029 -180.66954 -32.62793 -3.17388 41.46241 2.95851 -3.59117 -15.99496 -1.41614 -1.35277 77.19628 -100.4555 55.6339 5.78701 105.62624 12.83745 3.4819 53.67261 104.02933 -55.63114 6.39815 -94.91778 11.28892 -0.21079 38.26054 -3.26589 -8.67638 -22.44259 -6.71773 -2.1247 -3.2665 41.95708 9.49674 4.79635 -27.79903 -6.62069 2.34774 3.37541
-0.00069 -4e-05 -0.00025 -180.73217 -32.80612 -3.18101 41.64046 2.97378 -3.55515 -15.99092 -1.41471 -1.35353 77.52142 -100.46338 55.63397 5.78698 105.66046 12.82975 3.55807 53.57662 104.06591 -55.63116 6.41337 -94.87985 11.26661 -0.20212 38.46289 -3.34911 -9.06054 -22.47651 -6.71494 -2.08234 -3.24501 42.14432 9.50491 4.84243 -27.81794 -6.61979 2.34619 3.37453
-0.00081 -5e-05 -0.00023 -180.80837 -33.03787 -3.19082 41.87061 2.99161 -3.50897 -15.98691 -1.41513 -1.3543 77.84974 -100.47726 55.63404 5.78694 105.69478 12.82294 3.63722 53.47667 104.1045 -55.6311 6.42909 -94.83596 11.24391 -0.19246 38.73288 -3.4307 -9.43229 -22.52108 -6.71158 -2.04178 -3.22378 42.39392 9.50582 4.85481 -27.84367 -6.61965 2.34847 3.37552
-0.00095 -5e-05 -0.00018 -180.86095 -33.18033 -3.19614 42.01455 3.00521 -3.47994 -15.98132 -1.41158 -1.35507 78.17527 -100.47884 55.63411 5.78691 105.72964 12.81368 3.71099 53.38036 104.13712 -55.63118 6.44538 -94.803 11.22055 -0.18403 38.88845 -3.52004 -9.84933 -22.5476 -6.70928 -1.99543 -3.20088 42.53898 9.52175 4.93684 -27.85807 -6.61801 2.34303 3.37269
-0.00113 -4e-05 -0.0001 -180.84108 -33.04267 -3.18741 41.88712 3.00552 -3.50479 -15.97369 -1.39723 -1.35583 78.48687 -100.44606 55.63411 5.78691 105.76337 12.80007 3.77068 53.29257 104.1571 -55.63168 6.46138 -94.80214 11.19816 -0.1796 38.68624 -3.63265 -10.40602 -22.51789 -6.71025 -1.93148 -3.17293 42.35662 9.58208 5.22364 -27.83673 -6.61192 2.31484 3.35856
-0.00133 -4e-05 -0 -180.79732 -32.8145 -3.17413 41.67218 3.00155 -3.54695 -15.96453 -1.3789 -1.35658 78.79557 -100.40089 55.63411 5.78691 105.7978 12.78356 3.82428 53.21103 104.17084 -55.63231 6.47787 -94.81236 11.1749 -0.17663 38.36853 -3.75099 -10.99778 -22.46993 -6.71226 -1.86284 -3.14385 42.06842 9.65684 5.57767 -27.80392 -6.60436 2.27912 3.34072
-0.00153 -3e-05 9e-05 -180.76625 -32.63546 -3.16335 41.50478 2.99992 -3.57947 -15.9555 -1.36238 -1.35733 79.10742 -100.36154 55.63411 5.78691 105.83342 12.76715 3.87957 53.13087 104.1859 -55.63287 6.49413 -94.81728 11.15119 -0.17314 38.11429 -3.86179 -11.54713 -22.43186 -6.71362 -1.79919 -3.11654 41.83778 9.72293 5.89223 -27.77744 -6.59763 2.24769 3.32504
